<?xml version="1.0" encoding="utf-8"?>
<!-- Generator: Adobe Illustrator 16.0.0, SVG Export Plug-In . SVG Version: 6.00 Build 0)  -->
<!DOCTYPE svg PUBLIC "-//W3C//DTD SVG 1.1//EN" "http://www.w3.org/Graphics/SVG/1.1/DTD/svg11.dtd">
<svg version="1.1" id="图层_1" xmlns="http://www.w3.org/2000/svg" xmlns:xlink="http://www.w3.org/1999/xlink" x="0px" y="0px"
	 width="200px" height="172.25px" viewBox="0 0 200 172.25" enable-background="new 0 0 200 172.25" xml:space="preserve">
<path fill="#1F1D00" d="M71.832,22.228v-6.001c0-3.334,4.762-5.112,8.057-5.112h39.145c3.301,0,8.057,1.778,8.057,5.112v6.001
	h11.051v-6.001c0-9.446-9.712-16.225-19.107-16.225H79.889c-9.396,0-19.108,6.779-19.108,16.225v6.001H71.832z M88.412,113.24
	c0,6.104,4.948,11.051,11.051,11.051c6.103,0,11.052-4.947,11.052-11.051v-7.668H88.429v7.668H88.412z M169.65,105.572h-48.084
	v7.668c0.193,12.208-9.547,22.262-21.755,22.455c-12.208,0.194-22.263-9.546-22.456-21.755c-0.004-0.233-0.004-0.467,0-0.7v-7.668
	H29.276c-10.812,0.713-21.428-3.137-29.271-10.613v52.619c0.706,13.479,11.592,24.188,25.082,24.67h148.742
	c13.493-0.48,24.384-11.188,25.093-24.67l1.172-52.619C191.854,102.561,180.83,106.402,169.65,105.572z M99.463,63.344
	c12.271,0.067,22.165,10.066,22.103,22.336v8.778h48.084c15.146,0,29.271-10.223,29.271-25.447v-12.28
	c-0.82-13.226-11.842-23.5-25.093-23.392H25.087C11.837,33.232,0.817,43.507,0,56.732v12.28c0,15.224,14.119,25.447,29.271,25.447
	H77.35v-8.778C77.288,73.406,87.188,63.406,99.463,63.344L99.463,63.344z M110.516,85.681c0-6.104-4.949-11.052-11.052-11.052
	c-6.104,0-11.051,4.948-11.051,11.052v8.778h22.104V85.681z M110.516,94.459H88.429v11.113h22.103V94.459H110.516z"/>
</svg>
