<?xml version="1.0" encoding="utf-8"?>
<!-- Generator: Adobe Illustrator 16.0.0, SVG Export Plug-In . SVG Version: 6.00 Build 0)  -->
<!DOCTYPE svg PUBLIC "-//W3C//DTD SVG 1.1//EN" "http://www.w3.org/Graphics/SVG/1.1/DTD/svg11.dtd">
<svg version="1.1" id="图层_1" xmlns="http://www.w3.org/2000/svg" xmlns:xlink="http://www.w3.org/1999/xlink" x="0px" y="0px"
	 width="200px" height="200px" viewBox="0 0 200 200" enable-background="new 0 0 200 200" xml:space="preserve">
<path fill="#1F1D00" d="M100.021,44.629c-1.172,0-2.305,0.117-3.457,0.195v22.5c1.152-0.117,2.266-0.371,3.457-0.371
	c20.938,0,37.93,18.32,37.93,40.918c0,3.887-0.664,7.598-1.602,11.152h21.328c0.605-3.633,0.957-7.344,0.957-11.152
	C158.635,72.949,132.385,44.629,100.021,44.629z M100.021,0c-1.172,0-2.285,0.137-3.457,0.195V22.52
	c1.152-0.059,2.285-0.195,3.457-0.195c43.789,0,79.297,38.301,79.297,85.547c0,3.789-0.313,7.5-0.742,11.152h20.898
	c0.352-3.672,0.547-7.383,0.547-11.152C200.002,48.301,155.236,0,100.021,0z M136.369,151.875
	c-11.484-4.746-22.363-10.84-34.961,1.855c-7.773,7.832-13.398,6.973-18.496,4.063c-5.078-2.91-36.406-37.422-40.684-48.711
	s-1.973-12.813,0-16.23c1.953-3.418,15.605-11.406,7.402-36.523s-14.648-44.023-48.086,0c-3.477,4.57,0,24.355,0,24.355
	S25.119,163.809,105.1,198.379c12.422,5.371,40.449-3.125,51.777-24.355C162.424,163.633,154.377,159.297,136.369,151.875
	L136.369,151.875z"/>
</svg>
