<?xml version="1.0" encoding="utf-8"?>
<!-- Generator: Adobe Illustrator 16.0.0, SVG Export Plug-In . SVG Version: 6.00 Build 0)  -->
<!DOCTYPE svg PUBLIC "-//W3C//DTD SVG 1.1//EN" "http://www.w3.org/Graphics/SVG/1.1/DTD/svg11.dtd">
<svg version="1.1" id="图层_1" xmlns="http://www.w3.org/2000/svg" xmlns:xlink="http://www.w3.org/1999/xlink" x="0px" y="0px"
	 width="272.5px" height="92.5px" viewBox="0 0 272.5 92.5" enable-background="new 0 0 272.5 92.5" xml:space="preserve">
<path id="XMLID_1223_" fill="#282828" d="M262,56.334c-1.667,2-4,5-9,5.332l-20-1V34.333c0-9.333,1.666-12,3.666-13.667
	C239,19,242,17.667,243.333,13c0-0.333,0-1,0-1.333c-0.333-0.333-0.667-0.333-1,0.333c-1.667,2.333-3,3.333-6.333,2.667
	c-10-2.333-21-4-21,14.667v2c0,1.333-1,2-2,0c0-0.333-0.334-0.667-0.334-0.667c-2.333-5-5.333-9-10.333-12.333C197,15,191,13,184,13
	s-13.667,2-19,6c-3.334,2.667-5.667,6.333-7,9.333C157.666,29,157,30,156.666,29c-1-2.333,1.667-6.667,2.667-10
	c0.333-1,0.333-1.667,0-2.667c-0.333-2-1.333-1-1.333-0.333c-1,4.333-6,1.667-8.334,0.333c-4-2.333-8.333-3.667-13.333-3.667
	c-9.333,0-17.667,3.667-24,10c-6,6-10,14.667-10,24c0,9.334,3.333,18,9.333,24.334c6,6,15,9.334,24.334,9.334
	c7,0,22-4.334,20.333-13.334c0-0.666-0.333-2-0.333-2.334c0.333-0.666,0.666-0.332,1,0c0.666,1,1.333,2.334,2,3.334
	c4.333,6.666,14.333,12.334,25,12.334c5.666,0,11.333-1.334,16-4c5.666-3,9.666-8,12.333-13.668c0-0.332,0.333-0.332,0.333-0.666
	c0.667-1.666,2-2,2,0.334v13.332c0,4,3.667,5.334,9.667,5h26.333c6.667,0,9.667-2.332,10.334-7.332c0.666-4,0-7,0.333-9.668
	c0.333-4,1.667-6,1.667-6.332C264.333,56,263.333,55.334,262,56.334z M146,56.666c-2.667,2.668-6,4-10,4s-7.334-1.666-10-4
	c-2.667-2.666-4-6-4-10c0-4,1.666-7.333,4-10c2.666-2.667,6-4,10-4s7.333,1.667,10,4c2.666,2.667,4,6,4,10
	C150.333,50.666,148.666,54.334,146,56.666z M194.333,56.666c-2.667,2.668-6,4-10,4s-7.333-1.666-10-4c-2.667-2.666-4-6-4-10
	c0-4,1.667-7.333,4-10c2.667-2.667,6-4,10-4s7.333,1.667,10,4c2.667,2.667,4,6,4,10C198.333,50.666,197,54.334,194.333,56.666z"/>
<path id="XMLID_1222_" fill="#282828" d="M106.333,67.666c-4-3-5.667-4.332-3.667-8.666c0.667-1.334-0.333-2-1.333-1.334
	c-4.667,3.668-10,4.668-15.667,2.668c-15.333-5-10.333-29.667,6-27.667c6.334,0.667,11.667-1,14.667-7.333
	c1.667-3.333,2.333-6.667,3-13C109.666,11,108,11,107.666,11.667c-1,2.667-2,3.333-3.333,3.667c-3,0.667-6-0.667-9.333-1.333
	c-5-0.667-9-0.667-13.667,0.667C75.666,16.333,70.666,19,66.666,23C60.666,29,57,37.667,57,47c0,4,0.333,7.666,1.333,11l0,0
	c1,4,0.333,3.666-2.667,4h-23l20.667-22.667c6-6,6-9,6-16.667c0-2.333-0.333-5,0.333-7.333c0.334-1-0.333-1.333-1.333-1
	C56,15,52,15,45.333,15h-30c-1.667,0-2.333-1-1.667-2.333c0-0.333,0-1.333-0.666-1.333c-4.334,2-5.334,11-5,16.667
	c0,3,1.666,4.667,4,4.667h23.666l-24.333,26C9.666,60.666,8,63.334,8,67v7.334c0,3.332,2,5.332,5.666,6h40.667
	c4-0.668,6.667-2.668,6.333-7.334v-5c0.334-1.334,1.334-1.334,2-0.666c1,1.332,1.667,2.332,3,3.332c6,6,14.667,10,24,10
	c3,0,6.667-0.666,10.334-2.332c3.666-1.668,7.333-4.334,8-7.334C108.333,70,107.666,69,106.333,67.666z"/>
</svg>
