<?xml version="1.0" encoding="utf-8"?>
<!-- Generator: Adobe Illustrator 16.0.0, SVG Export Plug-In . SVG Version: 6.00 Build 0)  -->
<!DOCTYPE svg PUBLIC "-//W3C//DTD SVG 1.1//EN" "http://www.w3.org/Graphics/SVG/1.1/DTD/svg11.dtd">
<svg version="1.1" id="图层_1" xmlns="http://www.w3.org/2000/svg" xmlns:xlink="http://www.w3.org/1999/xlink" x="0px" y="0px"
	 width="200px" height="200px" viewBox="0 0 200 200" enable-background="new 0 0 200 200" xml:space="preserve">
<path fill="#1F1D00" d="M196.889,24.444v146.222c0,9.778-6.889,17.778-16,19.557v-14c3.111-2.667,4.889-6.667,4.889-12V30.889
	c0-9.777-5.555-15.333-15.333-15.333H37.111C32,15.556,28,17.111,25.333,20H11.111c2-8.889,10-15.556,19.555-15.556h146.222
	C188,4.444,196.889,13.333,196.889,24.444L196.889,24.444z"/>
<path fill="#1F1D00" d="M166.889,49.111v133.333c0,9.778-5.555,15.333-15.333,15.333H18.222c-9.778,0-15.333-5.555-15.333-15.333
	V49.111c0-9.778,5.556-15.333,15.333-15.333h133.333C161.334,33.778,166.889,39.333,166.889,49.111L166.889,49.111z
	 M151.334,178.889c2.222-3.111,2.889-6.223-3.557-10.889l-35.111-24.444L132,124.223l9.334,7.555
	c1.555,1.111,6.443,1.334,8.889-1.555c2.443-2.889,1.333-7.778-0.223-9.111l-14.444-11.777c-0.222-0.223-0.444-0.223-0.667-0.445
	c-2.666-1.555-5.777-1.333-8,0.667l-25.777,26l-42.223-29.333c-0.889-0.667-1.555-1.111-2.222-1.334
	c-1.111-0.666-2.222-1.111-3.555-1.333c-1.333-0.222-2.223,0-3.111,0.667c-0.667,0.222-1.111,0.666-1.556,1.111l-30.444,30
	c-2.444,2.443-2.222,6.666,0.444,9.332c2.667,2.668,6.889,2.89,9.333,0.445l25.778-25.777l43.778,30.443
	c0.444,0.445,0.889,0.667,1.555,1.111L140,179.556C146.444,184,149.111,182,151.334,178.889z M115.111,73.111
	c0-8.667-7.111-15.778-15.778-15.778c-8.667,0-15.556,7.111-15.556,15.778c0,8.667,7.111,15.777,15.556,15.777
	C108.223,88.667,115.111,81.556,115.111,73.111z"/>
</svg>
